<?xml version="1.0" encoding="UTF-8" standalone="no"?>
<!-- Created with Inkscape (http://www.inkscape.org/) -->

<svg
   width="116.00771mm"
   height="116.00736mm"
   viewBox="0 0 116.00771 116.00736"
   version="1.1"
   id="svg1"
   inkscape:version="1.3.2 (091e20ef0f, 2023-11-25, custom)"
   sodipodi:docname="colorpicker-tray.svg"
   xmlns:inkscape="http://www.inkscape.org/namespaces/inkscape"
   xmlns:sodipodi="http://sodipodi.sourceforge.net/DTD/sodipodi-0.dtd"
   xmlns="http://www.w3.org/2000/svg"
   xmlns:svg="http://www.w3.org/2000/svg">
  <sodipodi:namedview
     id="namedview1"
     pagecolor="#ffffff"
     bordercolor="#000000"
     borderopacity="0.25"
     inkscape:showpageshadow="2"
     inkscape:pageopacity="0.0"
     inkscape:pagecheckerboard="0"
     inkscape:deskcolor="#d1d1d1"
     inkscape:document-units="mm"
     inkscape:zoom="0.77326038"
     inkscape:cx="9.0525781"
     inkscape:cy="175.87866"
     inkscape:window-width="1920"
     inkscape:window-height="1048"
     inkscape:window-x="0"
     inkscape:window-y="0"
     inkscape:window-maximized="1"
     inkscape:current-layer="layer1" />
  <defs
     id="defs1" />
  <g
     inkscape:label="Layer 1"
     inkscape:groupmode="layer"
     id="layer1"
     transform="translate(-70.8909,-77.882614)">
    <rect
       style="fill:#f9f9f9;stroke-width:0.0666943;stroke-linecap:round;stroke-linejoin:round;stroke-miterlimit:50"
       id="rect1"
       width="116.00771"
       height="116.00736"
       x="70.8909"
       y="77.882614"
       ry="7.8831816" />
    <path
       d="m 165.89613,97.51322 c -2.76481,2.67e-4 -5.41638,1.098045 -7.37107,3.05428 l -13.90069,13.90071 -6.5294,-6.52965 -6.95049,6.95021 4.4933,4.49329 -31.90066,31.90096 c -2.58223,2.58221 -3.868903,5.99533 -3.868903,9.4074 v 6.32582 l -10.425586,10.42532 6.950476,6.95049 10.425353,-10.4256 h 6.32607 c 3.4118,0 6.82386,-1.28455 9.40714,-3.86862 l 31.90093,-31.90094 4.49329,4.49329 6.95024,-6.95048 -6.5294,-6.52938 13.90044,-13.90072 c 1.95442,-1.95442 3.05403,-4.60626 3.05455,-7.37104 v -3.47513 c 0,-3.83866 -3.11182,-6.95021 -6.95048,-6.95021 z m -25.34422,26.78297 8.98659,8.98659 -19.83277,19.83274 h -17.97315 z"
       class="ColorScheme-Text"
       fill="currentColor"
       id="path1"
       style="color:#232629;stroke-width:6.9503" />
    <path
       d="M 103.56874,114.74856 84.137112,95.316951 86.4268,93.02726 l 17.14194,17.14192 17.14194,-17.14192 2.28968,2.289691 z"
       class="ColorScheme-Text"
       fill="currentColor"
       id="path1-6"
       style="color:#232629;stroke:#232629;stroke-width:3;stroke-dasharray:none;stroke-opacity:1" />
  </g>
</svg>
